<svg version="1.0" xmlns="http://www.w3.org/2000/svg" width="800.000000" height="800.000000" viewBox="0 0 800.000000 800.000000" preserveAspectRatio="xMidYMid meet">
  <metadata>
    <rdf:RDF xmlns:rdf="http://www.w3.org/1999/02/22-rdf-syntax-ns#" xmlns:rdfs="http://www.w3.org/2000/01/rdf-schema#" xmlns:dc="http://purl.org/dc/elements/1.1/">
      <rdf:Description dc:format="image/svg+xml" dc:Label="1" dc:ContentProducer="001191330110MACRLGPT8B00000" dc:ProduceID="351469113" dc:ReservedCode1="OF/VfziKw3Ze19EtbGztp8lkAmaATWPDucADTecRW7c=" dc:ContentPropagator="001191330110MACRLGPT8B00000" dc:PropagateID="351469113" dc:ReservedCode2="OF/VfziKw3Ze19EtbGztp8lkAmaATWPDucADTecRW7c="/>
    </rdf:RDF>
  </metadata>
  <g transform="translate(175.754635,631.817096) scale(0.056044,-0.056044)" fill="#000000" stroke="none">
    <path d="M3928 7860 c-86 -57 -1557 -1513 -1681 -1664 -91 -111 -84 -132 100 -297 195 -173 397 -371 997 -973 302 -303 562 -561 579 -573 35 -26 80 -29 116 -9 14 8 84 69 157 137 176 165 1377 1370 1481 1486 70 79 82 98 89 139 10 67 -6 90 -160 240 -72 71 -369 365 -661 654 -291 290 -573 565 -625 611 -145 130 -286 246 -318 263 -28 15 -32 14 -74 -14z m134 -1116 c45 -23 106 -83 133 -128 34 -58 49 -152 35 -224 -10 -60 -96 -243 -117 -249 -7 -3 2 30 19 74 27 67 32 91 32 173 1 84 -2 101 -27 152 -46 94 -142 148 -261 148 -73 0 -116 -15 -199 -72 -71 -48 -263 -231 -283 -270 -13 -26 -12 -29 13 -57 16 -16 75 -71 133 -122 58 -51 206 -188 330 -305 340 -320 359 -334 477 -334 l68 -1 -37 -33 c-44 -38 -47 -51 -15 -60 20 -6 16 -10 -28 -32 -28 -13 -84 -54 -125 -90 -72 -63 -110 -91 -110 -80 0 3 9 20 20 38 30 49 27 139 -6 206 -41 82 -503 535 -664 650 -59 43 -69 47 -120 46 -30 0 -73 -4 -94 -9 l-40 -8 24 39 c98 162 418 475 556 543 81 41 212 43 286 5z m-1521 -610 c18 -11 -19 -22 -78 -23 -54 -1 -68 -21 -16 -22 21 -1 52 -5 68 -9 l30 -7 -40 -8 c-22 -4 -56 -13 -75 -20 -50 -17 -59 -11 -53 38 8 72 6 70 82 65 37 -3 74 -9 82 -14z m3019 7 c0 -15 -24 -29 -55 -31 -65 -4 -95 0 -95 14 0 15 28 21 108 24 23 1 42 -2 42 -7z m-53 -66 c7 -7 18 -16 25 -19 10 -5 10 -7 1 -12 -7 -3 -34 -23 -60 -45 -26 -21 -52 -39 -57 -39 -10 0 18 36 49 62 25 21 19 27 -35 36 -24 4 -45 13 -47 19 -9 25 99 23 124 -2z m-1558 -1550 c67 -22 104 -20 139 8 30 24 18 -3 -22 -46 -27 -30 -51 -47 -66 -47 -36 0 -103 44 -145 95 l-38 47 33 -17 c19 -10 63 -27 99 -40z"/>
    <path d="M5875 5921 c-16 -10 -84 -68 -150 -128 -145 -132 -1519 -1518 -1546 -1559 -28 -43 -24 -94 10 -140 82 -113 742 -790 1467 -1506 l231 -228 46 0 c41 0 53 6 104 49 90 77 904 889 1159 1156 504 529 461 482 485 527 24 47 24 94 1 133 -26 42 -674 718 -958 1000 -121 120 -575 558 -659 637 -33 30 -70 60 -82 67 -32 16 -74 13 -108 -8z m174 -213 c539 -521 693 -673 926 -914 407 -422 590 -615 593 -630 6 -24 5 -25 -318 -364 -529 -556 -1285 -1310 -1313 -1310 -14 0 -1067 1056 -1342 1345 -279 295 -306 325 -303 340 4 20 1295 1322 1473 1487 87 81 157 138 169 138 11 0 60 -39 115 -92z"/>
    <path d="M5910 5649 c-33 -13 -67 -46 -96 -91 -33 -52 -30 -55 13 -18 20 18 52 39 70 47 30 12 38 12 65 -2 17 -8 33 -13 35 -11 6 6 -21 60 -37 73 -18 15 -18 15 -50 2z"/>
    <path d="M5909 5148 c-45 -40 -111 -97 -146 -126 -89 -76 -95 -117 -22 -180 22 -19 39 -39 39 -45 0 -26 110 -348 152 -447 50 -116 111 -291 103 -298 -2 -3 -20 3 -39 12 -19 9 -146 54 -283 101 -136 46 -295 104 -352 129 -57 26 -118 46 -136 46 -21 0 -52 -14 -91 -41 -134 -94 -224 -175 -224 -200 0 -38 25 -47 107 -42 74 5 80 4 114 -24 20 -15 119 -124 220 -242 367 -426 369 -429 385 -653 5 -76 11 -101 25 -114 14 -12 24 -14 38 -8 32 16 311 322 311 342 0 38 -31 52 -114 52 -51 0 -90 6 -112 16 -41 20 -191 168 -389 385 -194 214 -189 208 -183 214 3 4 57 -14 120 -39 119 -46 257 -92 438 -146 58 -18 128 -39 155 -47 28 -9 84 -16 127 -17 86 -1 118 16 118 64 0 66 -90 343 -189 585 -89 217 -104 255 -99 260 7 7 225 -152 408 -298 108 -86 218 -196 241 -239 19 -37 19 -38 -1 -90 -26 -69 -26 -103 2 -122 12 -9 26 -16 31 -16 4 0 47 37 95 83 48 45 129 113 181 152 147 110 145 145 -14 189 -124 34 -150 48 -309 162 -238 171 -527 423 -572 499 -23 39 -24 49 -14 79 6 18 20 42 30 51 25 23 25 40 0 65 -35 35 -64 25 -151 -52z m861 -874 c14 -7 38 -18 54 -24 l29 -11 -47 -29 c-26 -17 -50 -30 -54 -30 -4 0 -15 12 -24 28 -9 15 -39 52 -67 84 -28 31 -51 59 -51 63 0 4 30 -10 68 -31 37 -21 78 -43 92 -50z m-890 -994 c0 -5 -7 -10 -15 -10 -8 0 -15 5 -15 10 0 6 7 10 15 10 8 0 15 -4 15 -10z"/>
    <path d="M4530 4286 c-86 -58 -124 -98 -116 -124 4 -11 38 -47 76 -82 l70 -62 0 75 c0 54 7 96 25 149 37 107 37 107 -55 44z"/>
    <path d="M7331 4206 c-7 -8 -9 -25 -6 -39 8 -31 -6 -61 -53 -109 -20 -21 -31 -38 -25 -38 13 0 151 90 176 114 23 23 22 33 -9 61 -30 28 -65 32 -83 11z"/>
    <path d="M6024 2742 c-26 -24 -50 -32 -61 -21 -12 12 -29 -6 -38 -42 -4 -16 -1 -30 8 -37 11 -10 24 -2 66 42 28 30 51 60 51 65 0 15 -3 14 -26 -7z"/>
    <path d="M1953 5880 c-88 -45 -393 -334 -801 -760 -124 -129 -339 -353 -478 -497 -345 -358 -390 -420 -365 -509 18 -64 44 -95 472 -549 287 -305 1055 -1065 1139 -1129 60 -45 68 -48 112 -44 35 4 59 15 95 43 57 45 1268 1259 1459 1462 150 160 174 198 174 274 0 103 -33 146 -454 584 -606 630 -959 969 -1151 1101 -70 48 -138 56 -202 24z m170 -159 c198 -148 664 -599 1169 -1131 245 -258 304 -326 330 -378 19 -41 20 -46 5 -75 -23 -47 -162 -193 -772 -812 -569 -577 -805 -805 -831 -805 -20 0 -115 90 -581 552 -545 540 -1013 1038 -1013 1078 0 37 83 131 459 520 146 151 306 318 356 370 379 399 742 740 789 740 6 0 46 -26 89 -59z"/>
    <path d="M1937 5602 c-14 -15 -33 -46 -41 -69 -16 -46 -32 -163 -23 -163 3 0 20 20 37 45 17 25 35 45 40 45 5 0 14 -16 20 -35 6 -19 18 -35 25 -35 13 0 50 40 58 63 3 9 8 8 21 -2 14 -12 19 -11 39 6 12 11 28 18 35 16 17 -7 15 11 -9 62 -28 60 -45 73 -72 56 -19 -12 -23 -11 -42 13 -27 33 -55 33 -88 -2z"/>
    <path d="M1882 4920 c-130 -27 -223 -81 -319 -185 -78 -83 -132 -182 -162 -295 -104 -395 11 -697 325 -855 205 -102 488 -101 688 2 108 56 211 164 270 284 65 131 90 238 83 354 -6 108 -30 180 -70 203 -41 25 -62 7 -60 -49 8 -216 7 -256 -11 -319 -48 -168 -152 -306 -276 -367 -326 -158 -746 -1 -840 315 -20 66 -22 90 -17 191 14 282 115 469 303 558 73 35 86 38 169 38 77 0 98 -4 149 -27 68 -33 97 -35 119 -10 27 29 20 58 -18 88 -77 59 -237 94 -333 74z"/>
    <path d="M796 4424 c-37 -25 -101 -78 -143 -117 -114 -108 -127 -155 -64 -234 62 -78 249 -253 272 -253 3 0 -9 30 -27 68 -47 96 -50 112 -24 112 38 0 33 28 -17 91 -46 59 -48 64 -47 123 1 65 28 122 96 209 17 21 28 40 26 42 -2 3 -35 -16 -72 -41z"/>
    <path d="M1585 4219 c8 -180 26 -238 97 -315 95 -103 218 -164 333 -164 78 0 92 15 27 29 -115 24 -217 79 -177 94 29 12 16 42 -30 69 -55 33 -131 135 -183 243 -80 169 -73 165 -67 44z"/>
    <path d="M3450 4183 c0 -47 -5 -76 -16 -91 -9 -13 -14 -25 -11 -28 8 -8 67 47 83 77 13 26 13 32 -1 59 -8 16 -24 34 -35 40 -19 10 -20 7 -20 -57z"/>
    <path d="M1962 2754 c-18 -12 -26 -13 -37 -4 -12 10 -15 9 -15 -3 0 -19 33 -51 87 -83 l42 -25 11 21 c20 38 -17 110 -57 110 -5 0 -19 -7 -31 -16z"/>
    <path d="M3932 4010 c-42 -26 -568 -532 -866 -833 -220 -223 -698 -729 -804 -851 -52 -59 -70 -104 -58 -149 3 -13 72 -91 153 -173 80 -82 270 -282 422 -444 318 -342 1090 -1118 1141 -1149 53 -32 124 -29 181 8 83 53 769 765 1225 1271 76 85 201 221 277 303 77 82 146 165 154 184 20 48 9 99 -31 151 -18 23 -265 277 -547 564 -283 288 -575 585 -649 662 -194 200 -460 447 -497 462 -44 19 -62 18 -101 -6z m442 -482 c502 -502 1249 -1265 1260 -1289 11 -23 6 -30 -174 -221 -69 -73 -163 -176 -210 -229 -287 -322 -839 -907 -1068 -1131 -106 -104 -158 -148 -174 -148 -17 0 -133 110 -453 432 -237 238 -529 539 -650 668 -120 129 -299 318 -397 418 -126 130 -176 188 -170 198 4 7 66 76 136 151 71 76 188 201 260 278 247 265 694 713 1048 1051 98 93 178 172 178 177 0 4 11 7 25 7 20 0 104 -78 389 -362z"/>
    <path d="M3930 3721 c0 -15 28 -33 40 -26 8 5 8 11 -1 21 -13 15 -39 19 -39 5z"/>
    <path d="M3871 2909 c-180 -31 -354 -152 -643 -447 -145 -147 -158 -170 -120 -205 11 -10 35 -17 59 -17 32 0 53 -9 101 -44 95 -70 119 -80 162 -67 21 6 47 11 58 11 14 0 86 -70 219 -212 286 -305 313 -337 340 -395 24 -52 24 -54 6 -76 -10 -13 -37 -40 -60 -61 -31 -27 -43 -46 -43 -66 0 -32 28 -60 59 -60 30 0 175 126 347 302 183 186 238 264 300 425 38 98 45 259 15 358 -46 155 -176 330 -310 420 -170 112 -341 159 -490 134z m171 -133 c241 -43 464 -259 514 -498 31 -147 -36 -339 -168 -483 -85 -93 -154 -124 -243 -111 -41 7 -55 20 -283 264 -395 424 -427 464 -415 526 11 57 212 221 338 276 43 19 113 35 165 38 8 1 50 -5 92 -12z m-697 -406 c4 -17 22 -48 41 -71 19 -22 34 -43 34 -45 0 -9 -45 19 -90 54 -25 20 -47 37 -49 38 -7 6 41 64 49 59 5 -3 11 -19 15 -35z m830 -810 c-3 -5 -13 -10 -21 -10 -8 0 -14 5 -14 10 0 6 9 10 21 10 11 0 17 -4 14 -10z"/>
    <path d="M2719 2421 c-114 -45 -220 -126 -234 -178 -10 -42 12 -77 85 -132 79 -61 161 -96 179 -78 16 16 14 23 -20 61 l-31 35 34 21 c18 11 36 20 41 20 4 0 7 5 7 11 0 5 -25 21 -55 35 -30 14 -55 32 -55 39 0 8 13 23 30 35 16 11 38 40 48 63 10 23 26 48 35 56 41 34 8 40 -64 12z"/>
    <path d="M5318 2284 c-22 -12 -29 -24 -34 -64 -6 -44 -12 -55 -48 -82 -65 -51 -69 -63 -16 -48 19 5 36 8 38 5 5 -5 -30 -57 -85 -122 -48 -57 -50 -63 -25 -63 30 0 120 66 238 177 129 120 138 141 83 187 -36 30 -106 35 -151 10z"/>
    <path d="M4131 769 c-61 -48 -67 -50 -115 -47 -48 3 -51 2 -54 -23 -4 -33 20 -53 52 -45 30 7 145 103 170 140 9 14 15 26 14 25 -2 0 -32 -23 -67 -50z"/>
  </g>
</svg>